<svg xmlns="http://www.w3.org/2000/svg" width="391" height="780" fill="none"><path fill="#fff" fill-rule="evenodd" d="M270.27 388.609c6.255.14 3.573-58.218-.604-68.972-.585-2.179-1.068-5.157-.97-7.832 5.165.517 4.609-3.019 4.342-7.282.088-3.386.323-10.371-4.858-7.651-15.533-31.098 1.262-111.487-39.636-119.059-4.929-1.197-10.022-2.435-14.171-5.852-4.391-8.116-6.627-9.153-13.902-9.678-1.347-7.31-3.865-15.12-11.369-17.964-6.871-2.693-14.867-2.907-22.031-1.471-5.929 1.934-6.471 12.956-7.789 18.39-7.986-2.118-17.828-6.572-22.127 3.525-2.082-.622-4.012-.218-6.128.474-17.736 2.858-34.943 10.881-41.521 27.622-4.063 10.046-1.18 20.982.344 31.387 1.421 11.329-2.326 21.825-4.063 32.723-2.587 15.006-3.055 27.042-1.367 38.196-4.462 1.015-4.79 5.073-2.986 9.319.53 1.437 1.065 2.952 2.237 3.765 2.384 1.501 5.466-.229 8.057-.494.539 5.993 1.583 11.872 3.31 18.555-.5 2-1.074 4.234-1.59 6.243l-.173-.189c-5.916 24.78-23.51 48.85-18.042 75.186.321.877.931.695 1.4.679 2.715 1.033 5.208.377 7.946.483 6.493.004 12.766.836 18.585 1.56 1.064 6.949 4.522 18.326 10.69 20.976.104.035 1.932-.346 2.085-.357-16.42 66.576-45.961 128.138-57.696 196.056-.07.829 1.279.39 1.721.491-.06 1.884 1.157 2.338 2.862 3.008-2.197 4.593-4.176 9.181-6.364 13.786-1.014 2.28-2.667 4.532-2.968 6.969-2.422 1.547-4.053 4.572-4.01 7.396-6.53 2.76-4.755 16.392-6.244 23.145-1.507 10.058-8.672 17.083-13.585 25.33-1.001 1.656-2.068 3.825-2.115 5.904-3.046 1.428-4.181 4.547-3.98 9.797-.01 6.143 1.722 8.482 6.394 8.63 12.69 1.268 27.498.752 40.261-.69 9.548-1.214 18.009-.207 15.874-11.68-.44-2.777.405-6.517-1.24-8.765-1.013-6.691-.423-13.435 1.762-20.046 1.329-5.566 3.574-17.063 2.643-24.533-.43-3.455-7.482-5.356-8.724-5.524.395-2.601.221-7.145-1.178-8.952 2.57-.359 3.215-1.038 3.75-3.892 1.28-4.622 1.45-9.64 4.617-13.534 5.695.074 11.372-1.372 17.065-1.548l.283-.654a30.004 30.004 0 0 0 9.911-1.804c.709.335 1.616.623 2.014-.45l1.901-5.945c22.13-70.426 46.661-141.023 70.579-210.933 1.396-3.399 3.075-7.012 5.259-10.041.739 42.776 9.7 85.506 10.469 128.26 1.04 29.413.773 58.516 3.539 88.033.712 6.247 1.469 6.04 2.402 5.656.373.059 1.253.246 1.634.326-.623 6.208-1.341 16.285-4.003 22.634-5.885.908-4.831 5.423-3.526 9.166-1.403 1.199-1.204 3.994-.787 5.541-5.537.006-6.744 4.509-6.363 7.351.527 4.752.232 12.148 3.403 16.207 1.868 5.176 4.908 10.061 6.095 15.637.746 4.103.458 10.079 1.178 14.149-1.811.836-1.044 2.148-1.349 4.685-1.567 11.612 3.95 9.638 13.704 10.438 5.847 1.291 50.358 3.86 48.434-3.866.328-3.146-1.135-4.528-1.761-7.626-.282-.822-5.827-10.337-9.135-13.939-11.093-10.423-10.609-24.417-10.258-40.536-.652-4.369-4.013-8.552-8.301-8.082 1.231-4.666-1.051-8.723-5.82-10.072.476-5.283.978-12.461 2.722-17.031l-1.643-1.673 2.199.263.73-1.838.796 2.014c3.775 0 8.034-.837 11.649-1.231.578.033.32-.752.415-1.055 3.415-.707 3.789-2.521 3.185-6.844.795-70.195.45-139.731-.637-210.056 5.336.238 10.54-1.709 15.784-3.006 1.864 1.17 2.391-2.994 2.173-3.893-.295-4.653-.871-9.191-1.389-13.415Z" clip-rule="evenodd"/><path fill="#000" fill-rule="evenodd" d="M160.68 151.45c.793.626.71 2.362.788 3.334l.006.064c.249 2.935-.089 5.884-.804 8.733l-.111.435c-.342 1.362-.682 2.995-1.752 3.929-1.215 1.061-3.145.374-3.189-1.337-.022-.795.243-1.561.579-2.307a576.154 576.154 0 0 1-7.073 2.684c-1.511 12.488 15.936 27.778 26.038 33.131 14.71 8.142 27.088-4.329 28.971-18.99.316-1.948.528-3.949.569-5.924l.003-.189c.008-1.632-.263-3.815.801-5.173-.783-.018-1.479.092-2.245.212l.037.064c.434.776 1.048 2.709-.327 2.856-2.969-.312-4.35-5.517-5.074-8.014l-.029-.108c-.467-1.871-1.062-8.661.345-9.476.433 1.676.263 3.495.789 5.175 1.198.483 3.48.613 4.008.702 6.17.072 9.669 4.501 12.169 9.685 7.332 6.017 17.87 4.983 25.787 9.938 24.225 17.559 16.313 85.917 28.38 114.998 2.416-1 4.878 1.002 5.201 3.444.333 1.878.233 3.89.26 5.793l.012.238c.197 3.892.87 8.266-4.387 8.351.008 2.173.417 4.277.942 6.374 2.911 12.697 4.182 25.774 4.468 38.79l.015.956c.094 6.841.178 28.005-3.755 30.509l.183 1.491c.456 3.728.885 7.466 1.124 11.213.378 1.945-.907 6.605-3.528 5.371-4.806 1.189-9.546 2.943-14.541 2.952 1.21 40.256.609 80.553.788 120.825-.386 29.685 1.219 59.617-.184 89.189l.051.417c.396 3.321.515 6.208-3.323 7.345-.055.813-.681 1.247-1.422 1.342a561.43 561.43 0 0 1-6.314.81c-1.962.146-4.061.634-6.017.401.189.191-.324.221-.379.081-1.783 4.474-2.301 9.35-2.742 14.122 4.327 1.649 6.689 5.359 5.982 10.01 4.367.176 7.555 5.027 8.167 9.116.392 2.821.078 5.623-.048 8.449-.605 9.659.815 20.064 7.051 27.768 4.047 4.836 9.317 9.21 11.083 15.507.48.224.874.658 1.047 1.335l1.121 4.397.557 2.198c.408 1.603.771 3.242.552 4.902l-.023.16c-1.092 10.51-44.182 5.444-52.592 4.69-3.38-.53-7.09-.241-10.134-2.031-3.733-2.464-4.2-7.463-3.559-11.557l.053-.383c.259-1.831.64-3.75 2.377-4.774-.585-3.793-.359-7.675-1.054-11.453-1.051-5.346-4.229-9.986-5.852-15.118-2.366-2.632-2.446-6.734-2.941-10.099-.375-3.264-.682-6.551-.808-9.835-.344-4.341 1.541-7.922 6.106-8.489-.212-.822.368-1.534.945-2.06-1.361-4.834-1.737-11.471 4.169-13.12 2.236-5.545 2.886-11.555 3.482-17.469-.071-.015-.142-.027-.212-.04-2.706 1.127-3.441-3.695-3.694-6.241l-.056-.608c-2.785-29.435-2.528-59.043-3.574-88.569l-.102-2.134c-.917-19.454-1.463-39.079-4.827-58.273-3.387-21.393-4.272-43.135-5.429-64.752-1.364 2.118-2.097 4.55-3.2 6.807-14.316 42.056-29.005 83.986-43.158 126.1-10.258 30.491-20.059 61.143-29.888 91.777-.502 1.568-2.082 1.893-3.239 1.391a30.982 30.982 0 0 1-9.143 1.701c-.187.431-.571.746-1.134.684-1.663-.182-3.577.338-5.24.532-3.805.376-7.5.959-11.34 1.014-2.378 3.008-2.528 7.086-3.624 10.665-.632 1.825-.533 5.917-2.713 6.431.781 1.204.884 2.649.757 4.138.678.154 1.366.445 2.004.744.621.314 1.442.287 1.87.92 12.179 2.208 3.279 25.332 1.162 32.98-2.078 6.252-2.728 12.783-1.78 19.311 1.449 2.001.964 4.978 1.186 7.351.116 2.117.33 4.266.311 6.386-.236 8.806-11.108 7.373-17.241 8.516-3.83.445-7.678.756-11.525.997-9.757.606-19.569.653-29.306-.291-6.287-.199-7.638-4.3-7.628-9.909l-.01-.232c-.142-3.807.472-8.404 4.088-10.383.18-2.012 1.2-4.043 2.243-5.801 4.845-8.145 12.119-15.282 13.55-25.057 1.403-6.399-.187-20.485 6.318-23.821.151-2.881 1.921-5.818 4.113-7.376.423-2.4 2.016-4.606 3.002-6.812 2.01-4.211 3.87-8.489 5.87-12.703-1.047-.443-2.16-1.258-2.306-2.415-1.005.012-1.998-.638-1.877-1.861.356-3.553 1.133-7.046 1.867-10.537l.091-.436c13.06-63.123 40.027-122.15 55.805-184.464-2.123.384-4.108-2.044-5.281-3.624-3.792-5.104-6.031-11.28-7.015-17.546l-1.782-.221c-5.943-.73-11.915-1.368-17.908-1.197l-1.444.049c-1.604.049-3.212.036-4.737-.541-1.064.098-2.172-.473-2.435-1.667-4.438-22.119 6.471-43.109 14.286-63.096 1.84-4.914 3.15-9.899 4.4-14.988.04-.165.299-.13.292.04-.244 5.657-1.646 11.361-3.07 16.814-4.679 18.49-14.424 36.622-12.041 56.198 7.406-5.833 16.202-9.884 25.442-11.598.533-2.317 1.122-4.616 1.565-6.948-.435-3.584-.732-7.186-1.112-10.788a296.223 296.223 0 0 0-5.179-32.103c-3.585-10.649-6.714-21.443-7.833-32.671l-.204.04c-2.485.504-5.223 1.599-7.53.016-1.463-1.014-2.096-2.696-2.687-4.311-1.69-3.915-2.002-9.062 2.778-10.699-1.782-12.449-.624-25.445 1.529-37.778 1.724-10.809 5.507-21.46 4.09-32.526-1.571-10.634-4.502-21.772-.265-32.182 6.964-17.372 24.598-25.614 41.941-28.267l.281-.083c2.145-.635 4.099-1.304 6.334-.823 5.273-9.784 13.824-5.805 22.175-3.624.564-1.659 1.033-3.356 1.475-5.052.275-.864.185-2.857 1.145-3.134Zm48.331 568.97-.021.426c-.221 4.581.027 8.506 5.707 8.476 3.908.417 7.817.823 11.731 1.177l1.468.13c11.618 1.036 23.376 1.543 34.971-.013l.483-.066c.969-.138 2.764-.111 3.531-.827.925-1.244-.146-3.617-.37-5.062-18.093-.21-36.21-.878-54.315-.647-1.904.01-2.764-1.618-2.588-3.1a3.998 3.998 0 0 1-.597-.494Zm-183.697-2.298c-.89 3.129-.67 6.085-.168 9.217.25 3.281 1.811 3.491 4.635 3.568 11.025 1.017 22.129.804 33.156-.049 5.91-.637 11.984-.613 17.784-1.921 2.768-1.226 1.17-5.082 1.264-7.447-13.026 8.395-32.727 7.329-46.932 2.472l-.228-.097c-3.36-1.412-7.655-2.3-9.511-5.743Zm21.577-56.483c-1.498 1.689-1.529 6.501-1.592 8.138l-.008.183c-.168 3.44-.141 6.886-.29 10.325.11 14.484-8.254 21.707-14.465 33.352-1.699 2.826.773 3.227 2.783 4.143 13.017 6.058 28.414 6.984 42.013 2.346 6.836-1.986 5.344-6.587 4.763-12.213-.571-11.498 5.479-21.857 7.269-32.98l.048-.288c.533-3.265 1.455-11.634-3.747-9.845-1.132.697-2.197-.177-2.33-1.245a2.81 2.81 0 0 1-.407.036c-.601 3.718-1.225 7.43-1.823 11.148.503.32.976.682 1.394 1.095.51.505.154 1.564-.613 1.5a11.8 11.8 0 0 1-1.171-.168c-.307 3.232-5.44 1.419-3.957-1.172-7.38-2.549-15.509-2.346-23.002-.391l-.031.013c-.58.231-4.752 1.067-3.41 1.718.56.067-.714.799-.937-.333-.072-1.421 3.17-2.118 4.163-2.708-2.505-3.586-4.217-8.233-4.65-12.654Zm189.044-11.354c-6.952-3.764-15.495-2.367-23.034-1.701l-.317.036c-1.919.206-4.593.334-5.474 2.31-1.275 3.166.839 10.25 1.503 13.772l.226.923c.551 2.255 1.073 4.491 1.262 6.822.004.074-.066.125-.132.125-2.641-2.821-3.828-6.616-5.062-10.236-.526.3-1.04.625-1.524.982-1.893 6.505-2.527 13.431-1.028 20.067l.054.234c1.851 8.2 7.616 14.907 8.164 23.476.366 3.465.284 7.015 1.281 10.38a1.86 1.86 0 0 1 1.283 1.068l3.25.004c15.707.027 31.418.169 47.115.816-.506-4.414-4.402-8.331-7.146-11.357-8.42-8.623-12.062-21.011-10.675-32.95.73-5.972 4.063-15.356-4.09-17.563-.596 4.868-1.401 9.72-1.846 14.607 1.539.742 1.444 2.699-.436 2.661-.843 2.839-3.672 1.691-3.367-.987-10.348-3.822-16.284-5.103-26.365.655-.282-.042.775-1.173.908-1.374 3.186-3.435 8.079-5.05 12.669-5.108 4.55-.001 8.829 1.714 13.122 3.04.645-4.611 1.079-9.251 1.591-13.879l.111-.991c.268-2.43.17-4.436-2.043-5.832ZM69.642 709.836c1.514-.337 2.907-.849 4.446-.502 5.415 4.068-16.711 5.215-18.595 4.926-4.796-.141-9.594-.75-14.21-2.105l-.321-.096c-.455-.127-5.056-1.408-4.183-1.98 6.242.553 12.354 1.7 18.714 1.401 3.173-.066 6.357-.29 9.496-.768a67.838 67.838 0 0 0 4.653-.876Zm146.288-5.04c-.992-1.486 3.841.487 4.47.505 4.003.987 8.075 1.735 12.187 2.046a66.87 66.87 0 0 0 8.303.118c2.044-.071 4.067-.373 6.099-.581l.073-.004c1.207-.042 3.626.707 2.135 2.144-2.318 1.798-5.748 1.25-8.527 1.514-8.438-.028-17.373-1.386-24.74-5.742Zm-158.635-10.8c2.433-.441 15.822-.585 14.488 3.525-.324.781-1.064 1.039-1.844.916-8.286-2.016-17.225-3.07-25.485-.29-.134.046-.227-.173-.096-.232 4.062-2.035 8.408-3.458 12.937-3.919Zm173.797-4.018c2.186-.166 4.385-.107 6.572.057l.896.07c.922.074 1.865.17 2.746.438l.175.056c1.201.387 3.908 2.451 1.853 3.444-2.206.714-4.071-.136-6.199-.683-5.932-1.405-12.168-.929-18.045.508l.828.266c.051-.037.117.049.068.091-.594.519-1.41.335-1.831-.31-.073-.111-.026-.288.09-.35 3.984-2.09 8.376-3.247 12.847-3.587Zm-184.756-.524c6.7-2.966 14.461-3.294 21.646-2.434l.512.063c2.241.262 5.165.383 6.447 2.472.443.723-.015 1.553-.73 1.814-2.109.771-4.588-.773-6.613-1.347-5.99-1.64-12.388-1.813-18.479-.679.043.225-.966.127-1.186.207-.275-.016-2.102.588-1.597-.096Zm168.941-4.631c5.844-2.843 12.601-3.521 18.911-2.053l.263.075c2.795.785 7.297 1.711 8.298 4.671.217.667-.253 1.568-.957 1.704-2.384.455-4.548-1.285-6.705-2.122-6.347-2.386-13.532-2.957-20.095-1.202-.044.259-.088.515-.135.773.113-.073.23.091.14.183-1.048.733-2.138-1.119.28-2.029Zm-153.882-4.998c4.729-.314 9.497.287 14.063 1.535l.858.236c1.248.35 2.864.901 3.046 2.25.07.536-.063.906-.5 1.238-1.588 1.189-5.045-1.302-7.021-1.595-7.174-2.156-14.875-2.125-22.142-.476l-.247.057.175 1.248c.172.597-1.425-.81-.818-1.45 3.836-1.954 8.313-2.691 12.586-3.043Zm158.34-2.23c3.796-.685 7.711-.816 11.548-.471l.453.042c2.292.203 9.717.498 7.96 4.372-.294.648-1.149.732-1.702.451-1.855-.94-3.883-1.28-5.931-1.59-7.23-1.007-14.617-.594-21.675 1.354.153.241-.163.526-.463.583-.745.138-.745-.751-.426-1.223.38-.559 1.137-.764 1.721-1.01 2.719-1.185 5.601-1.985 8.515-2.508ZM75.988 656.036l-.432-.103c-7.243-1.704-23.3-4.761-24.964 5.219-.59 4.395 1.357 8.683 1.213 13.035 7.51-3.055 15.816-3.023 23.618-1.004.692-4.518 1.352-9.04 2.058-13.555l.114-.54c.314-1.523.42-2.714-1.607-3.052Zm-16.132 1.817c1.578-1.354 4.21-1.335 5.759.143 1.415.297 2.414 1.8 2.437 3.089 2.152 3.785-.443 9.014-4.553 9.959-9.28 1.956-13.429-10.795-3.643-13.191Zm160.785-6.039c7.765-1.388 10.586 8.466 4.213 12.462-9.003 4.517-15.001-9.685-4.213-12.462ZM63.698 629.928c.114.753-.256 1.289-.699 1.797-1.592 6.528-3.988 12.603-6.35 18.861 7.685-1.275 14.946-.163 21.746 1.925.082-1.91.952-3.889 1.556-5.69a77.407 77.407 0 0 1 4.24-9.965l.206-.402c.59-1.144 1.157-2.341 1.853-3.436-7.522-1.028-15.043-1.953-22.552-3.09Zm151.484-1.391-.201.908c-.863 3.94-1.682 7.918-2.967 11.746l-.018.079c-.196.966-.639 5.439-.917 2.282-.214.475-.443.945-.687 1.408l1.863-.222c6.946-.816 14.193-1.466 21.006.279-.707-5.479.333-10.714 1.853-15.894-6.659-.153-13.259-.104-19.932-.586Zm-126.1 6.81c-.243.229-.482.463-.708.706.307-.079.613-.155.898-.221-.012-.18-.139-.316-.19-.485Zm150.057-5.025-.217.509c.112-.066.237-.13.37-.187a1.594 1.594 0 0 1-.153-.322Zm-179.555-1.118c-.078.292-.138.613-.28.879.112.02.227.042.341.066.139-.28.285-.554.443-.822a18.104 18.104 0 0 1-.504-.123Zm57.917-323.091c-.681.33-1.392.414-2.332.453-7.636.317-15.248 1.202-22.747 2.711.414 6.068 2.26 11.947 4.016 17.733l.364 1.268c5.935 20.729 11.114 42.391 10.071 64.073.059.022.115.052.168.079-.095.265-.162.537-.258.801l-.061.156-.356.886c-.197.491-.388.984-.554 1.49-.292.105-.65.182-.991.231-1.733 11.479-.086 24.35 7.721 33.327-2.783-5.604-3.754-11.97-3.631-18.196l.022-.952c.032-1.176.102-2.348.46-3.464.015-.06.093-.05.113 0 1.652 5.106 1.76 10.653 3.384 15.797l.124.395c1.284 4.031 3.429 9.221 7.154 11.304.685.205 1.74-.037 2.097.753l.023.057.022-.007c-1.662-5.449-2.733-11.083-3.1-16.772l-.024-.387c-.117-1.985-.374-4.112.12-6.05.942 1.772.708 4.666 1.146 6.81l.018.123c.346 2.316 3.68 20.026 5.87 17.66.453-.653.335-1.915.349-2.692l.002-.076a51.816 51.816 0 0 0-.017-3.368c-.237-6.613-1.264-13.4.75-19.842.336-1.086 2.162-1.29 2.384 0 .886 5.16 1.733 10.325 2.58 15.49.618 3.155.592 6.713 2.469 9.434.022-5.94-.307-11.864-.592-17.797l-.076-.247c-.225-.749-.447-1.721.069-2.358.207-1.354 2.185-1.199 2.352.219.037.296.064.596.093.894.655.822 1.264 1.662 2.038 2.368 5.17-10.561-11.746-28.802-14.081-40.729-6.878-23.227-2.923-47.58-.923-71.232-2.069-.245-4.154-.311-6.236-.343Zm98.434-133.678c3.615 7.263 6.269 14.949 8.108 22.859.566 2.442-2.707 3.941-4.029 1.801l-.04-.066c-1.626-2.715-4.05-5.106-7.117-6.041-2.09 8.769-1.072 18.035.014 26.889 1.926 12.335 3.458 24.723 3.687 37.223l.011.67c.671 42.688 6.941 85.185 13.807 126.98 10.977 1.764 21.026 6.742 31.144 11.117 1.758.687 3.555 1.286 5.396 1.699-5.083-47.385-24.418-91.823-30.392-139.035-1.579-12.279-1.653-24.748.528-36.955.037-.234.368-.156.383.051.239 5.015 1.096 9.964 1.604 14.951.346-2.848 1.145-5.733 1.79-8.464.789-2.671 1.08-6.959 3.392-8.7l.146-.505c.061-.216.382-.125.331.091-.024.104-.049.205-.071.308 1.485.395.098 2.158-.27 3.001-2.383 6.399-3.092 13.326-4.719 19.922 2.354 20.59 6.593 40.919 11.814 60.932 4.797-1.267 9.61-2.487 14.419-3.725-10.727-35-4.454-74.061-20.526-107.481-6.021-11.216-20.85-9.692-29.41-17.522Zm-81.501-6.398c-2.25-.121-4.6 1.103-6.76 1.524-2.863.556-5.712.997-8.512 1.851-14.333 3.938-28.16 14.69-30.758 30.183-1.784 10.638 2.635 21.002 2.48 31.61-.467 10.51-3.925 20.611-5.272 31.015-1.621 10.639-2.18 21.775-.789 32.465 12.857-3.655 26.285-3.884 39.469-1.996-1.099-16.204.344-32.487 1.142-48.679.575-10.399 1.558-20.845 1.21-31.264-.007-.231.368-.288.404-.056 3.954 21.279 1.635 42.88 1.235 64.341-.253 5.422.416 10.896.146 16.288 5.994 1.293 5.777 8.298 3.944 12.915-.324 1.111-1.427.918-2.32.783-.967 1.018-3.275-.311-4.59-.31-1.029 26.637-7.283 55.09 5.532 79.987 5.358.029 10.516-1.823 15.723-2.874l.284-.056.008-.003c.765-.999 1.139-2.604 1.242-3.779.727-20.514-1.55-41.075-.218-61.591 1.632-22.773 6.701-45.406 4.357-68.332-1.622-20.491-6.071-40.61-8.216-61.04l-.109-1.057c-.134-1.259-.184-2.651-.806-3.611-3.619 3.304-6.655 7.233-8.829 11.654-1.204 2.136-4.428 1.185-4.478-1.226-.463-4.304-.532-8.625-.062-12.931l.043-.38c.582-5.39 2.207-10.534 4.5-15.431Zm134.525 147.839c-4.661.247-9.327.765-13.996.704l.47 1.767c5.652 21.208 11.67 42.378 15.218 64.078l.129-2.035c.128-2.035.251-4.071.331-6.111 1.007-19.502-.53-38.978-2.152-58.403ZM147.636 178.524c.02.881.063 1.76.132 2.636 2.154 3.239 1.962 7.543 2.444 11.268 2.704 20.119 6.684 40.154 8.026 60.482 1.247 16.261-.79 32.465-2.873 48.563-2.569 18.436-2.299 37.063-1.703 55.624 9.87-8.955 23.898-10.526 36.351-13.307l.592-.121c9.575-1.965 19.13-4.814 27.265-10.411-5.85-41.945-4.473-84.431-10.455-126.339-.185-3.3-.222-6.619.051-9.916-.263-3.57-.341-7.16-.348-10.739-2.621 10.574-11.405 20.79-22.913 20.456-12.244-.721-22.637-10.772-30.621-19.388-2.164-2.57-4.316-5.571-5.948-8.808Zm107.687 135.371-.553-.027.034.121c.114-.023.23-.044.346-.064l.173-.03Zm15.188-14.323c-.087-.027-.236-.027-.401-.02-.239.552-.721 1.007-1.281 1.157l-4.672 1.266a1418.91 1418.91 0 0 1-11.69 3.124c.654 2.531 1.319 5.062 1.991 7.59 5.32-1.722 11.211-1.331 16.636-2.44-.067-2.921-.226-5.857-.276-8.784-.012-.477.085-1.245-.158-1.674-.153-.273 0-.172-.149-.219Zm-178.714 9.833-.146.032c.048.133.093.266.134.401.002-.145.005-.288.012-.433Zm34.636-14.057c-10.023-1.466-20.217-2.333-30.327-1.335-4.572.622-9.214 1.286-13.695 2.135-1.559 2.405.165 8.257 2.105 10.108.582.222 1.583-.209 2.14-.335a154.376 154.376 0 0 1 12.655-2.311.6.6 0 0 0 .54.241l.976-.091c5.856-.536 11.763-.929 17.632-.593l.044.034c3.959.29 7.905.918 11.848 1.371 1.556-4.091 1.288-8.786-3.918-9.224Zm72.933-133.442c.387 1.318.852 2.6 1.431 3.845.604-.168 1.438-.033 1.882.35l.189-.035c.52-.099 1.144-.25 1.306-.268 7.162-.997 6.616 8.637 6.643 13.479.043 2.427.092 4.857.165 7.285 2.05-.702 4.79.559 6.582 1.676a155.159 155.159 0 0 0-4.89-13.85l-.348-.884c-1.448-3.661-3.051-7.368-6.128-9.917-2.34-.615-4.606-.727-6.832-1.681Zm-51.927-2.417c-6.657-2.388-9.294 3.038-11.14 8.448-2.177 5.993-2.771 12.59-2.408 19.038l.224-.298c2.449-3.283 5.98-8.702 10.446-7.831-.045-2.491.045-5.227.52-7.814-.277-1.669-.348-3.356-.155-5.042.102-2.114 2.392-1.794 3.9-2.093 1.305-.874 2.886-1.226 4.473-.61 1.198-.16 2.396-.313 3.594-.465.184-.407.332-.815.487-1.231-3.315-.689-6.63-1.4-9.941-2.102Z" clip-rule="evenodd"/><path fill="#fff" fill-rule="evenodd" d="M220.432 95.805c-2.149-9.043-6.849-17.458-14.372-24.26-22.639-22.336-64.215-10.212-64.027 23.448-.812 3.932-1.141 7.974-.872 11.984.111 1.711.853 4.098-.144 5.638-2.248 2.88-3.555 5.003-2.79 8.835.639 3.345 2.921 5.715 6 6.975 1.846.529 3.598 1.681 4.282 3.437 4.11 7.509 7.155 13.755 13.634 18.873 1.672 1.317 18.82 9.22 24.47 9.22 16.542 0 37.39-5.98 37.736-24.419.06-4.05-.652-8.147-1.099-12.166-1.087-9.169-.704-18.67-2.818-27.565Z" clip-rule="evenodd"/><path fill="#000" fill-rule="evenodd" d="M220.06 91.281c.005-.112.165-.137.197-.026.614 2.177.963 4.394 1.444 6.605.463 2.13.9 4.265 1.264 6.414.687 4.054 1.265 8.119 1.803 12.195l.134 1.019c.935 7.171 2.48 14.642 1.129 21.855-1.152 6.155-5.017 11.115-9.996 14.752-4.716 3.444-10.433 5.654-16.109 6.91-6.093 1.349-13.315 1.751-18.272-2.707-1.984-1.786.721-5.328 2.874-3.717 5.055 3.783 11.486 2.668 17.19 1.162l.173-.045c5.006-1.331 10.046-3.348 14.021-6.751 4.394-3.763 6.567-8.985 6.818-14.712.141-3.217-.16-6.431-.484-9.63l-.036-.355c-.372-3.658-.763-7.315-1.123-10.974-.329-3.337-.612-6.694-.762-10.045l-.07-1.691c-.146-3.408-.342-6.867-.195-10.259Zm-59.288-28.32c8.226-4.275 17.68-5.804 26.835-4.37 8.801 1.38 16.878 5.911 22.915 12.41 2.948 3.173 5.564 6.843 7.236 10.852.83 1.992 1.481 4.07 1.827 6.204.178 1.097.353 2.234.387 3.346.03 1.03-.273 1.996-.237 3.042.006.164-.246.196-.284.039-.286-1.167-.975-2.05-1.407-3.159a43.26 43.26 0 0 0-1.063-2.442l-.32-.69c-.931-2.007-2.043-3.931-3.143-5.849a41.507 41.507 0 0 0-8.387-10.332c-5.845-5.2-13.342-8.556-21.168-9.16-8.122-.628-16.361 1.304-23.297 5.584-6.936 4.28-12.181 10.932-14.904 18.592a40.957 40.957 0 0 0-2.309 11.988c-.09 2.073-.006 4.163.139 6.232l.073.987c.084 1.183.142 2.361-.035 3.516 1.251-.389 2.563-.551 3.879-.358 1.956.286 3.124 1.086 4.001 2.83a.101.101 0 0 1-.137.137c-1.137-.567-2.977-.268-4.182.029-1.253.309-2.382.846-3.447 1.573-1.971 1.344-3.515 3.426-3.894 5.814-.367 2.308.583 4.644 2.177 6.298.821.852 1.802 1.588 2.9 2.047 1.333.558 2.653.54 3.832 1.46.729.569.553 1.542.059 2.173 2.488 2.723 4.694 5.702 7.182 8.435a139.167 139.167 0 0 1 3.403 3.843l.412.493c1.103 1.328 2.859 2.732 3.363 4.404.314 1.039-.802 2.399-1.93 1.926-1.73-.727-2.965-2.619-4.134-4.069l-.076-.094a39.932 39.932 0 0 1-3.309-4.754l-.328-.548c-1.799-3.02-3.583-6.152-4.73-9.47a1.743 1.743 0 0 1-.241.209c-1.653 1.173-4.056.271-5.706-.491a12.125 12.125 0 0 1-4.101-3.104c-2.422-2.835-3.538-6.507-2.73-10.187.686-3.117 2.85-6.148 5.688-7.725-1.31-1.505-1.852-3.534-2.213-5.517-.461-2.532-.553-5.127-.428-7.695.25-5.114 1.569-10.155 3.607-14.837 3.648-8.38 10.096-15.388 18.225-19.613Zm-17.313 55.913c1.727-.323 3.336-.401 5.001.328 1.806.791 3.077 2.098 4.259 3.628 1.345 1.741-2.101 3.643-2.97 1.332l-.026-.071c-.232-.685-.649-1.346-1.177-1.955a1.63 1.63 0 0 1-.619.578c-.302.148-.762.045-.834-.339-.081-.426.008-.943.255-1.304l.033-.049c-1.198-.962-2.638-1.665-3.922-1.891-.128-.023-.127-.234 0-.257Z" clip-rule="evenodd"/><path fill="#000" fill-rule="evenodd" d="M197.519 143.848a9.666 9.666 0 0 1-4.062-3.119c-.362-.482-.456-.99-.38-1.455.085-.523.395-.997.818-1.315.424-.319.955-.476 1.467-.396.446.07.889.313 1.241.818l.073.101a6.397 6.397 0 0 0 2.345 1.964 5.302 5.302 0 0 0 2.903.51c1.953-.221 3.299-1.275 4.73-2.706.177-.181.354-.367.533-.557a.84.84 0 0 1 .442-.34.958.958 0 0 1 .61.009.964.964 0 0 1 .48.363c.11.161.172.36.152.588-.131 1.484-.908 2.808-2.012 3.847-1.226 1.155-2.851 1.953-4.381 2.234-1.686.308-3.403.087-4.959-.546Zm5.754-22.886c1.793 1.088 4.526 3.625 2.597 6.322-2.271 2.378-5.541-.349-7.152-1.582-1.494-.955-3.173 1.503-1.786 2.619 11.642 8.602 16.367-7.074 7.248-8.638-1.004-.172-1.377.943-.907 1.279Zm-20.864-10.006c.199-2.455 3.944-3.012 4.317-.584.334 2.176-.059 4.175-1.041 6.134-.938 1.871-3.297.998-3.475-.706-.239-2.284.076-3.318.199-4.844Zm28.514-1.087c.523-.683 1.277-1.149 2.18-.885 2.823.823 1.991 4.822.999 6.768-.538 1.057-2.279 1.325-3.066.395-1.283-1.518-1.897-4.549-.266-6.044.044-.078.093-.156.153-.234Zm-25.278-9.654.446-.078c1.379-.238 3.094-.467 4.07.64.517.587.696 1.678 0 2.239-1.224.989-2.576.606-4.043.689a16.105 16.105 0 0 0-3.533.601c-2.554.728-4.634 2.058-6.815 3.518-.286.192-.578-.174-.442-.441 1.259-2.461 3.699-4.482 6.143-5.714 1.304-.658 2.731-1.204 4.174-1.454Zm22.705-1.102.342.07c3.713.774 8.538 2.322 10.297 5.962.067.515-.004.625-.062.697l-.019.024c-.047.062-.085.147-.309.217l-.188-.047c-.806-.211-1.444-.502-2.061-.803l-.67-.329c-.776-.38-1.56-.746-2.39-1.017a28.195 28.195 0 0 0-5.446-1.2 2.234 2.234 0 0 1-1.093-.414 1.64 1.64 0 0 1-.611-.929c-.13-.523-.093-.919.189-1.392.211-.355.514-.6.862-.742a2.026 2.026 0 0 1 1.159-.097Z" clip-rule="evenodd"/></svg>