<svg xmlns="http://www.w3.org/2000/svg" data-name="Layer 1" viewBox="0 0 512 512"><defs><clipPath id="a"><rect width="512" height="512" fill="none"/></clipPath><clipPath id="b"><path fill="none" d="M51.998,286.606c0,112.666,91.335,204.001,204.002,204.001s204.002-91.335,204.002-204.001c0-112.668-91.335-204.002-204.002-204.002S51.998,173.938,51.998,286.606"/></clipPath></defs><g clip-path="url(#a)"><g clip-path="url(#a)"><path fill="#fff9e7" d="M460.0015,286.6055c0,112.667-91.334,204.002-204.001,204.002s-204.002-91.335-204.002-204.002,91.335-204.001,204.002-204.001,204.001,91.334,204.001,204.001"/><path fill="#fff9e7" d="M458.9215,287.8055c0,112.667-91.334,204.002-204.001,204.002s-204.002-91.335-204.002-204.002,91.335-204.001,204.002-204.001,204.001,91.334,204.001,204.001"/></g><g clip-path="url(#b)"><path fill="#fac847" d="M557.09418,176.978l-134.427,161.39c-21.332,34.569-23.425,61.29-31.643,70.408a23.90965,23.90965,0,0,1-30.367,4.429c-34.051-21.074-112.148-72.605-119.904-81.656-13.258-15.467-9.844-22.777-4.202-25.571,7.448-3.69,26.992,4.256,57.328,19.096,30.335,14.84,72.519-2.56,87.993-21.5l98.611-160.429"/><path d="M284.7851,376.86971a10.31233,10.31233,0,0,1-10.284-9.704c-2.08-35.264,10.299-46.247,12.802-48.091a10.31051,10.31051,0,0,1,12.78,16.168c-.64.744-6.334,8.041-4.997,30.709a10.30937,10.30937,0,0,1-9.685,10.899c-.206.013-.412.019-.616.019m14.76-41.201-.012.009.012-.009m.013-.009-.011.007Zm.583-.481"/><path d="M383.583 431.0786a10.26874 10.26874 0 01-4.384-.984l-104.19-49.034c-48.004-16.548-59.415-68.359-59.879-70.565a10.31087 10.31087 0 0120.175-4.269c.134.612 9.774 43.001 46.864 55.489a10.3529 10.3529 0 011.1.443l104.711 49.278a10.312 10.312 0 01-4.397 19.642M171.5845 191.39789c4.332 5.622 8.393 11.415 12.358 17.268 2.009 2.91 3.919 5.882 5.875 8.826l5.721 8.922 5.572 9.016c1.806 3.038 3.663 6.043 5.416 9.114 3.562 6.106 7.027 12.275 10.218 18.615-4.336-5.62-8.398-11.412-12.363-17.265-2.009-2.91-3.916-5.884-5.874-8.826l-5.717-8.925-5.569-9.018c-1.807-3.037-3.661-6.044-5.416-9.114-3.561-6.108-7.027-12.275-10.221-18.613M253.8623 143.145c.672 10.877 1.023 21.755 1.263 32.632.149 5.439.182 10.878.271 16.317l.089 16.316-.085 16.317c-.091 5.439-.12 10.877-.27 16.316-.239 10.877-.592 21.755-1.268 32.633-.676-10.878-1.03-21.756-1.268-32.633-.151-5.439-.18-10.877-.27-16.316l-.086-16.317.09-16.316c.088-5.439.121-10.878.271-16.317.239-10.877.591-21.755 1.263-32.632M284.79349 273.6758c2.23-6.169 4.749-12.199 7.369-18.18 1.283-3.003 2.671-5.956 4.009-8.933l4.172-8.854 4.33-8.779c1.5-2.899 2.943-5.825 4.497-8.698 3.05-5.773 6.204-11.496 9.648-17.08-2.227 6.171-4.744 12.202-7.365 18.182-1.281 3.004-2.673 5.955-4.009 8.933l-4.176 8.852-4.334 8.777c-1.497 2.9-2.945 5.824-4.497 8.698-3.051 5.773-6.203 11.497-9.644 17.082M146.9556 294.17529a119.08189 119.08189 0 017.904 11.125q3.6435 5.73153 6.887 11.682 3.25349 5.9445 6.116 12.102a117.30359 117.30359 0 015.09 12.663 117.64842 117.64842 0 01-7.909-11.122q-3.6435-5.733-6.881-11.684-3.24748-5.949-6.112-12.105a119.09608 119.09608 0 01-5.095-12.661M104.9458 320.3784a69.911 69.911 0 015.652 8.801q2.50651 4.54348 4.594 9.272 2.0985 4.722 3.79 9.626a68.88652 68.88652 0 012.721 10.101 68.97962 68.97962 0 01-5.657-8.799q-2.50651-4.542-4.588-9.273-2.09249-4.7265-3.786-9.629a69.95676 69.95676 0 01-2.726-10.099"/><polyline fill="#f04d5a" points="68.305 113.161 156.518 297.537 99.757 331.411 -24.704 142.613"/><path fill="#827ab9" d="M102.9268,355.2383a7.84272,7.84272,0,0,1,7.765-9.201,226.79784,226.79784,0,0,1,28.972,2.006c8.024,1.089,16.045-3.374,18.533-11.08.029-.091.058-.183.086-.275,2.829-9.242,4.727-18.803,19.589-13.833,14.862,4.969,23.55,17.534,57.216,6.612,33.667-10.923,55.119-16.285,62.303-11.357,5.441,3.732,7.906,11.82-8.133,25.914-9.384,8.246-98.022,50.194-136.464,67.036a25.05836,25.05836,0,0,1-30.856-9.075,124.26,124.26,0,0,1-19.011-46.747"/><rect width="3" height="9.005" x="25.128" y="136.359" fill="#fff" transform="rotate(-30.846 26.628 140.862)"/><path fill="#fff" d="M115.0882,291.91479l-8.743-14.642,2.576-1.538,8.743,14.642Zm-17.487-29.284-8.744-14.642,2.575-1.538,8.744,14.642Zm-17.488-29.284-8.744-14.641,2.576-1.538,8.743,14.641Zm-17.488-29.283-8.744-14.642,2.575-1.538,8.744,14.642Zm-17.488-29.284-8.744-14.642,2.575-1.538,8.744,14.642Z"/><rect width="3" height="9.005" x="125.929" y="305.15" fill="#fff" transform="rotate(-30.846 127.43 309.653)"/><path d="M215.3345 344.02251l.237-.068a8.83855 8.83855 0 011.44031-10.438L213.8 333.68c-.193.161-3.8125 2.63451-1.56851 10.94051-4.467 2.379-2.529 10.513 3.339 9.526 5.963-1.003 5.011-9.606-.236-10.124M228.9702 340.0005a5.6541 5.6541 0 00-1.15.318 7.4359 7.4359 0 01-1.282-3.742c-.13819-2.95651 2.52973-4.55908 3.86173-5.69308L226.22 331.64a5.10923 5.10923 0 00-3.08281 4.77551 9.91287 9.91287 0 002.196 6.264c-1.481 3.271.7 8.173 5.331 7.394 6.482-1.091 4.798-11.165-1.694-10.073"/></g><g clip-path="url(#a)"><circle cx="256" cy="286.606" r="204.002" fill="none" stroke="#fac847" stroke-miterlimit="10" stroke-width="10" transform="rotate(-45 256 286.606)"/><path fill="#fac847" d="M124.7622 103.80569c-2.32 1.579-3.472 2.387-5.759 4.041q-10.8135-16.94252-21.634-33.882a234.16522 234.16522 0 0123.111-15.053l2.857 5.555c-6.534 3.81-9.758 5.841-16.096 10.154 2.265 3.773 3.397 5.66 5.663 9.433 4.798-3.265 7.229-4.822 12.145-7.788 1.139 2.142 1.709 3.212 2.848 5.353-4.809 2.901-7.187 4.425-11.881 7.619 3.499 5.826 5.248 8.74 8.746 14.568M154.56859 87.19992a13.197 13.197 0 01-12.808-.16 25.14089 25.14089 0 01-10.413-11.255c-2.655-5.25-3.493-10.452-2.306-15.617a16.48562 16.48562 0 019.286-11.498c4.997-2.435 9.758-2.369 14.055.112 4.297 2.482 7.382 6.612 9.409 12.234 2.128 5.904 2.431 11.237 1.11 16.002a15.23883 15.23883 0 01-8.333 10.182m-2.279-5.426a8.29084 8.29084 0 004.374-5.681c.736-2.731.09-6.765-2.003-12.101-1.702-4.339-3.717-7.444-6.096-9.266a7.16713 7.16713 0 00-8.026-.598c-5.818 2.838-6.531 8.98-2.246 18.086 2.08 4.419 4.34 7.4 6.731 8.994a6.84237 6.84237 0 007.266.566M187.20909 74.1774a13.0122 13.0122 0 01-12.51-2.166 26.07043 26.07043 0 01-8.727-12.755c-1.917-5.603-2.067-10.869-.239-15.782a15.78606 15.78606 0 0110.575-9.902c5.208-1.628 9.867-.826 13.756 2.292 3.89 3.117 6.377 7.676 7.632 13.548 1.318 6.166.919 11.486-.998 15.994a14.634 14.634 0 01-9.489 8.771m-1.527-5.717a7.96132 7.96132 0 005.022-4.934c1.077-2.585.969-6.673-.388-12.273-1.104-4.553-2.675-7.933-4.768-10.104a7.12863 7.12863 0 00-7.784-1.839c-6.065 1.898-7.555 7.849-4.541 17.515 1.463 4.692 3.288 7.99 5.421 9.94a6.78614 6.78614 0 007.038 1.695M219.53169 65.90189c-2.736.44-4.102.681-6.829 1.204q-2.8905-17.0415-5.782-34.084c-4.249.815-6.368 1.267-10.592 2.26-.514-2.473-.771-3.709-1.284-6.182a243.04486 243.04486 0 0129.642-5.228c.264 2.517.396 3.776.659 6.293-4.282.508-6.419.806-10.685 1.492q2.4345 17.12251 4.871 34.245M241.9751 53.52539c2.559-.764 3.848-1.129 6.439-1.823.896 4.035 3.87 5.946 8.975 5.976a8.51945 8.51945 0 005.415-1.467 4.85251 4.85251 0 002.017-3.807 5.78367 5.78367 0 00-.779-3.135c-.559-.969-1.803-1.757-3.738-2.331-2.886-.868-4.34-1.28-7.268-2.061a18.78093 18.78093 0 01-5.611-2.255 9.50275 9.50275 0 01-3.046-3.647 12.51851 12.51851 0 01-1.333-5.132 10.64151 10.64151 0 013.684-8.973 15.32791 15.32791 0 0110.454-3.477 18.096 18.096 0 019.457 2.523 10.15227 10.15227 0 014.958 6.799c-2.79.528-4.177.812-6.937 1.415-.96-3.134-3.428-4.775-7.354-4.795a7.92944 7.92944 0 00-5.2 1.467 4.47467 4.47467 0 00-1.72 3.693c.045 2.341 1.915 3.922 5.554 4.861 2.666.696 3.991 1.062 6.624 1.827 3.992 1.166 6.594 2.885 7.834 5.032a12.21591 12.21591 0 011.615 6.971 12.05791 12.05791 0 01-4.56 9.247 16.07 16.07 0 01-10.385 3.186 18.215 18.215 0 01-9.35-2.406 12.85022 12.85022 0 01-5.745-7.688M303.063 67.8613c-2.535-.53-3.804-.777-6.349-1.236 1.118-7.018 1.676-10.528 2.793-17.547-5.758-1.037-8.649-1.469-14.443-2.16l-1.865 17.685c-2.56-.305-3.842-.44-6.407-.673q1.641-20.409 3.282-40.817c2.971.27 4.455.426 7.419.78-.706 6.693-1.059 10.038-1.765 16.731 5.927.707 8.883 1.149 14.773 2.21 1.057-6.64 1.585-9.96 2.643-16.6 2.946.53 4.416.816 7.351 1.43q-3.71549 20.09851-7.432 40.197M337.87769 78.04834c-2.625-.997-3.943-1.475-6.588-2.389.036-4.09.033-6.138-.017-10.241-5.495-1.823-8.262-2.649-13.825-4.131-2.024 3.483-3.017 5.234-4.961 8.752-2.15-.545-3.227-.803-5.385-1.295 6.773-12.484 13.897-24.626 21.486-36.631 3.572 1.012 5.352 1.549 8.899 2.687.59 14.448.724 28.791.391 43.248m-6.719-18.853c-.134-7.685-.275-11.538-.704-19.259-4.14 6.357-6.142 9.571-10.007 16.062 4.304 1.179 6.447 1.818 10.711 3.197M368.09961 92.04541c-2.624-1.448-3.943-2.149-6.597-3.506.613-8.944.801-13.449.932-22.51-4.378 2.534-6.523 3.849-10.718 6.565-1.47 3.835-2.204 5.752-3.673 9.588-2.423-1.053-3.64-1.561-6.083-2.541q6.78447-19.167 13.574-38.333c2.829 1.135 4.237 1.723 7.044 2.942-3.054 7.969-4.582 11.955-7.636 19.924 1.348-.992 2.318-1.657 2.894-2.009a216.89 216.89 0 0119.461-10.995c2.785 1.412 4.171 2.14 6.928 3.637-5.889 2.853-8.766 4.36-14.377 7.523-.194 9.89-.779 19.87-1.749 29.715M392.9971 107.84671a201.81954 201.81954 0 00-20.528-13.33q9.19348-17.994 18.393-35.985a255.63409 255.63409 0 0123.532 15.262c-1.285 2.017-1.927 3.025-3.212 5.042-6.485-4.68-9.788-6.885-16.493-11.026-2.094 3.843-3.14 5.763-5.234 9.606 5.187 3.202 7.749 4.888 12.799 8.426-1.227 1.985-1.841 2.978-3.069 4.963-4.945-3.464-7.453-5.114-12.53-8.249-2.161 3.967-3.242 5.951-5.403 9.918 6.142 3.793 9.167 5.815 15.104 10.11-1.344 2.105-2.016 3.158-3.359 5.263"/></g></g></svg>