<svg xmlns="http://www.w3.org/2000/svg" xmlns:xlink="http://www.w3.org/1999/xlink" data-name="Layer 1" viewBox="0 0 508.61 377.6"><defs><linearGradient id="b" x1="394.51" x2="368.61" y1="120.81" y2="172.62" gradientUnits="userSpaceOnUse"><stop offset="0" stop-opacity="0"/><stop offset=".88" stop-opacity=".8"/><stop offset=".97"/></linearGradient><linearGradient id="a" x1="208.36" x2="230.2" y1="374.65" y2="374.65" gradientUnits="userSpaceOnUse"><stop offset="0" stop-color="#ecc4d7"/><stop offset=".42" stop-color="#efd4d1"/><stop offset="1" stop-color="#f2eac9"/></linearGradient><linearGradient id="c" x1="243.66" x2="265.86" y1="372.45" y2="372.45" xlink:href="#a"/><linearGradient id="d" x1="269.49" x2="359.07" y1="144.52" y2="144.52" xlink:href="#a"/><linearGradient id="e" x1="118.1" x2="197.17" y1="152.68" y2="152.68" xlink:href="#a"/><linearGradient id="f" x1="248.16" x2="255.03" y1="152.63" y2="152.63" xlink:href="#a"/><linearGradient id="g" x1="250.22" x2="264.47" y1="152.33" y2="158.42" xlink:href="#a"/><linearGradient id="h" x1="50.59" x2="106.91" y1="222.62" y2="208.35" xlink:href="#b"/><linearGradient id="i" x1="208.36" x2="319.86" y1="201.67" y2="256.48" xlink:href="#b"/><linearGradient id="j" x1="236.78" x2="249.73" y1="172.32" y2="188.36" xlink:href="#a"/><linearGradient id="k" x1="106.38" x2="287.7" y1="308.85" y2="297.59" xlink:href="#b"/><linearGradient id="l" x1="74.83" x2="122.89" y1="185.01" y2="209.04" xlink:href="#b"/><linearGradient id="m" x1="339.27" x2="373.06" y1="175.52" y2="212.97" xlink:href="#b"/><linearGradient id="n" x1="75.02" x2="148.23" y1="133.56" y2="170.73" xlink:href="#b"/><linearGradient id="o" x1="361.97" x2="361.97" y1="99.11" y2="143.04" xlink:href="#b"/><linearGradient id="p" x1="238.4" x2="230.51" y1="126.27" y2="167.1" xlink:href="#a"/><linearGradient id="q" x1="372.55" x2="332.57" y1="147.71" y2="164.04" xlink:href="#b"/><linearGradient id="r" x1="358.2" x2="329.76" y1="142.39" y2="162.67" xlink:href="#b"/><linearGradient id="s" x1="344.61" x2="431.89" y1="123.84" y2="215.07" gradientUnits="userSpaceOnUse"><stop offset="0" stop-color="#fff" stop-opacity="0"/><stop offset=".84" stop-color="#fff" stop-opacity=".84"/><stop offset=".97" stop-color="#fff"/></linearGradient><linearGradient id="t" x1="218.07" x2="178.84" y1="181.2" y2="204.1" xlink:href="#b"/><linearGradient id="u" x1="220.79" x2="282.44" y1="302.69" y2="298.86" xlink:href="#b"/></defs><path fill="#68e1fd" d="M497.38 282.19c-15.46 28.63-46.15 49.63-78.69 49.43-11.69-.08-23.45-2.73-35-.77-8 1.37-15.52 4.92-23 8.25-38.21 17.09-84.34 28.84-120.52 7.79-21.22-12.35-37.65-35.28-62-37.89-15.13-1.62-29.7 5.2-43.82 10.88-20.32 8.17-42.79 14.33-63.94 8.65-22.25-6-38.77-23.93-49.79-44.63a141.47 141.47 0 0 1-7.3-16c-17.07-44.39-15.88-97.93 12.36-136.2C47 102.74 80.8 85.66 114.8 74.06c78.05-26.62 154.22-.65 234.57-5.19 21.77-1.23 44.37-3.24 64.71 4.6 16.19 6.23 29.49 18.2 41.3 30.9 22.16 23.83 40.76 51.68 49.76 82.95a143.36 143.36 0 0 1 5.53 34.7c.7 20.9-3.39 41.83-13.29 60.17Z" opacity=".19" transform="translate(-2.14 -61.87)" style="isolation:isolate"/><path fill="#68e1fd" d="M497.38 282.19c-15.46 28.63-46.15 49.63-78.69 49.43-11.69-.08-23.45-2.73-35-.77-8 1.37-15.52 4.92-23 8.25-38.21 17.09-84.34 28.84-120.52 7.79-21.22-12.35-37.65-35.28-62-37.89-15.13-1.62-29.7 5.2-43.82 10.88-20.32 8.17-42.79 14.33-63.94 8.65-22.25-6-38.77-23.93-49.79-44.63 8.43-3.86 18.51-1.82 27.84-.5a157.08 157.08 0 0 0 83.33-11c27.89-11.94 57-31.75 88.76-24.53 31 7 60.42 30.9 93.58 26 12.35-1.82 23.54-8.28 33.49-15.8 22.27-16.84 39.85-39.41 62.84-55.25s55.19-23.75 78.36-8.17c9.86 6.63 16.7 16.55 21.84 27.41.71 20.86-3.38 41.79-13.28 60.13Z" opacity=".19" transform="translate(-2.14 -61.87)" style="isolation:isolate"/><path fill="#68e1fd" d="m377.13 111.35 24.72 39-18.75 11.47-24.56 5.35 18.59-55.82z"/><path fill="url(#b)" d="m377.13 111.35 24.72 39-18.75 11.47-24.56 5.35 18.59-55.82z"/><path fill="url(#a)" d="M208.36 337.81c.27.05 11.15 72.84 11.15 72.84s7.91 1.9 7.63 0 1.09-25.18 2.71-29.78-3-43.06-3-43.06Z" transform="translate(-2.14 -61.87)"/><path fill="url(#c)" d="M243.66 337.32s1.63 36.78 4.87 46 7.31 28.19 7.31 28.19h10L264 336.55s-11.4-7.55-20.34.77Z" transform="translate(-2.14 -61.87)"/><path fill="#68e1fd" d="M215.3 343.88c2.48-.32 5 .74 7.47.47a12 12 0 0 1 3.15-.31.69.69 0 0 1 .44.2.72.72 0 0 1 .11.48v3.3c0 1.59 0 3.33-1 4.58s-2.86 1.7-4.53 1.84a3.5 3.5 0 0 1-1.61-.13 3.75 3.75 0 0 1-1.3-1.05c-1.11-1.21-1.95-1.91-2.1-3.54-.02-.52-.55-5.84-.63-5.84ZM262.91 345.33a1.05 1.05 0 0 1 1.27 1.22 30.52 30.52 0 0 1-.46 7.07 5 5 0 0 1-.5 1.8c-.72 1.26-2.33 1.64-3.77 1.72-2.19.14-4.67-.27-6-2a8.3 8.3 0 0 1-1.17-3.53c-.23-1.3-.69-2.55-.9-3.84-.19-1.11.1-1.65 1.23-1.81 1.59-.24 3.25-.27 4.86-.37 1.83-.14 3.64-.22 5.44-.26Z"/><path fill="#25233a" d="M197.61 371.87a3.5 3.5 0 0 0 .18 1.84 4.14 4.14 0 0 0 2.6 2.08c3.64 1.25 14.78-6.34 18.3-7.89a52.37 52.37 0 0 0 8.85-4.77c.28-.2-.45-10-.65-11.49a.84.84 0 0 0-.24-.61 1 1 0 0 0-.48-.14c-1.68-.14-3.37 0-5.06 0a22.44 22.44 0 0 1-2.59-.11 12.35 12.35 0 0 0-2.36-.43c-1.28.14-3.74 4.16-4.85 4.78-12.69 7.11-13.36 14.36-13.7 16.74ZM251.27 360.4a8.7 8.7 0 0 0-.24 2.91c.29 1.51 1.6 2.59 2.83 3.52 2.25 1.69 14.51 13.94 21.64 10a2.75 2.75 0 0 0 1-1.24 5.13 5.13 0 0 0 .45-1.82 13.4 13.4 0 0 0-1.71-7.88c-1.22-2.1-8.54-8.51-9.28-10.82-.45-1.4-.59-3.11-1.84-3.9a1 1 0 0 0-.58-.19 1.58 1.58 0 0 0-.85.39c-2.18 1.46-5 1.08-7.5.72-.73-.11-2.28-1-2.88-.6-.89.62-.78 3.1-.82 4a41.78 41.78 0 0 1-.22 4.91Z"/><path fill="url(#d)" d="M269.49 166.71s33.94-21.14 34.48-21.6 34.84-28.34 38.75-32.25 6.89-10.56 12.36-8.4 5.59 10.69-1.38 18.46c-.83.93-6.26.81-6.46 1.06-.47.56-1.48 1.65-4.51 5s-21.58 23.47-32.36 28.63S278.71 185 278.71 185Z" transform="translate(-2.14 -61.87)"/><path fill="url(#e)" d="M197.17 169.47c-1.37 1.6-31.71-15.48-31.71-15.48l-35.81-36.41s-6.16-5.37-10.53 2 6.61 14.56 6.61 14.56l7.17 1.16s17.38 28.9 21.67 30.35 35.75 27 36.05 23.66 6.55-19.84 6.55-19.84Z" transform="translate(-2.14 -61.87)"/><path fill="#25233a" d="M209.93 74.84c-.94 9.52.76 19.77 7 27 1.47 1.72 3.26 3.42 3.52 5.67a17.69 17.69 0 0 1-.21 3.32 4 4 0 0 0 .86 3.11 1.85 1.85 0 0 0 2.85-.22l2.54 5.37a2.39 2.39 0 0 0 1 1.25 2.22 2.22 0 0 0 1.35 0 20.19 20.19 0 0 0 7.9-3.3 2.54 2.54 0 0 1 1-.52c1.65-.26 2 2.55 3.59 3.16 1.2.47 2.42-.57 3.29-1.52l3.46-3.75a5.75 5.75 0 0 0 2.88 2.81 12.89 12.89 0 0 1 1.55-3 15.54 15.54 0 0 0 .58 5.51l1.75-2.17c.16-.21.37-.44.64-.42a.85.85 0 0 1 .47.26l2.86 2.53c-1.48-4.37-.82-9.15.22-13.63s2.45-9 2.44-13.56c0-5.91-2.36-11.53-4.66-17a29.69 29.69 0 0 0-3.8-7.12c-2.34-3-5.68-4.9-9-6.65a28.09 28.09 0 0 0-9.17-3.4 29.71 29.71 0 0 0-7.59.25q-4 .48-8.05 1c-2.32.33-3.36.46-4.84 2.28-2.91 3.66-3.99 8.28-4.43 12.74Z"/><path fill="url(#f)" d="M255 149.79a3.72 3.72 0 0 1-.37 2.42 16.68 16.68 0 0 1-1.34 2.11 13.07 13.07 0 0 1-1.33 1.8 3 3 0 0 1-1.95 1c-2.82.09-1.72-4.63-.78-6.11 1.03-1.73 4.92-4.69 5.77-1.22Z" transform="translate(-2.14 -61.87)"/><path fill="url(#g)" d="M251.1 151.75a6.29 6.29 0 0 0 .57-1.05 1.94 1.94 0 0 1 .77-.9.89.89 0 0 1 1.09.14c.32.4.11 1-.14 1.42-.58 1-.56 2.62-1.47 3.36a6.9 6.9 0 0 1-1.48.76 4.18 4.18 0 0 1-2 0c-.27-.2.34-1.55.31-1.89s0-.84.11-1 .59 0 .79 0a2.1 2.1 0 0 0 1.45-.84Z" transform="translate(-2.14 -61.87)"/><path fill="#68e1fd" d="m74.18 119.5-26.19 31.63 38.95 34.61 11.07-10 3.71-53.13c.14-1.48-27.54-3.11-27.54-3.11Z"/><path fill="url(#h)" d="M76.32 181.37 50.13 213l38.95 34.61 11.07-10 3.71-53.13c.14-1.48-27.54-3.11-27.54-3.11Z" transform="translate(-2.14 -61.87)"/><path fill="#68e1fd" d="M277.41 121.45a3.31 3.31 0 0 1-.84 1.69 55.7 55.7 0 0 1-5.34 6.33c-3 2.91-6.69 5.25-8.68 8.92-2.84 5.25-.65 53.68-.44 62.31.06 2.47-38.27 4-55.07 2.17.22-8.87 5.29-24.31 3.47-33-1.47-7-2.58-3.06-6.38-14.47-1.56-4.66-.4-10.28.43-15.13.55-3.27-14.16-9.18-16.08-12.8a41.89 41.89 0 0 1 .94-7 42.63 42.63 0 0 1 4.23-11.29 3.52 3.52 0 0 1 1.37-1.6 3.65 3.65 0 0 1 2.29-.08 80.57 80.57 0 0 1 16.87 5c5.08 2.12 10.36 1.21 15.71.49a128.93 128.93 0 0 0 38.33-11.42q4.36 9.1 8.72 18.19a3.32 3.32 0 0 1 .47 1.69Z"/><path fill="url(#i)" d="M279.55 183.32a3.31 3.31 0 0 1-.84 1.69 55.7 55.7 0 0 1-5.34 6.33c-3 2.91-6.69 5.25-8.68 8.92-2.84 5.25-.65 53.68-.44 62.31.05 2.14-28.69 3.57-47.31 2.73l31.22-2.39s13.24-46.46 9.92-58.84c-3-11.19 10-24.19 18.08-28.49l2.93 6.11a3.32 3.32 0 0 1 .46 1.63Z" transform="translate(-2.14 -61.87)"/><path fill="url(#j)" d="M231.92 167.79c-.11-1.44-.32-3 .4-4.24a6.34 6.34 0 0 1 3.23-2.26c2.38-1 5.31-1.95 7.37-.4a6.38 6.38 0 0 1 2.06 3.83 33.64 33.64 0 0 1 .53 9.4c-.16 2.76-.53 5.69-2.31 7.8a14 14 0 0 1-4.22 3c-2.14 1.14-4.94 2.23-6.8.67-5.56-4.59.16-11.97-.26-17.8Z" transform="translate(-2.14 -61.87)"/><path fill="#68e1fd" d="m207.04 202.87-12.54 75.61s12.84 2.36 42.53-1.11c16.6-1.93 28.61-1.36 36-.48a5.94 5.94 0 0 0 6.46-7.37l-17.35-68.82s-50.85-4.96-55.1 2.17Z"/><path fill="url(#k)" d="M275.14 338.76c-3.05-.37-6.89-.67-11.52-.77a177.41 177.41 0 0 0-24.45 1.25c-29.69 3.47-42.53 1.11-42.53 1.11l12.54-75.61c2.69-4.52 24.09-4.18 39.4-3.33h.19c7.89.44 14.12 1 15.28 1.13h.2v.06l.27 1.08 17.06 67.68a5.94 5.94 0 0 1-6.44 7.4Z" transform="translate(-2.14 -61.87)"/><path fill="#68e1fd" d="m116.33 63.7-21.06 43.56h1.91l19.8-42.42s.38-1.14-.65-1.14ZM116.98 109.13l6.61-36.81 1.53.25-6.5 38.07s-1.53 1.32-1.64-1.51Z"/><path fill="#68e1fd" d="M74.63 105.13s37-5.24 55.5 12.27l4.73 5.12-15.67 41s-8.66 6.1-17 4.38-23.88-5.77-23.88-5.77-5-1.6-5-9.23 1.32-47.77 1.32-47.77Z"/><path fill="url(#l)" d="M76.77 167s37-5.24 55.5 12.27l4.73 5.12-15.67 41s-8.66 6.1-17 4.38S80.45 224 80.45 224s-5-1.6-5-9.23S76.77 167 76.77 167Z" transform="translate(-2.14 -61.87)"/><path fill="#68e1fd" d="m345.1 62.11-8.08 54.69h1.18l8.11-54.69h-1.21zM351.56 61.05l9.37 45.21 1.75-.31-10.2-46.01-.92 1.11z"/><path fill="#68e1fd" d="M329.78 120.99s23-19.57 42.4-14.73h6.28s-3.81 37.11-2.54 46.33-27.46 18.89-29.62 18.38-10.29.51-11.31-11.44-5.21-38.54-5.21-38.54Z"/><path fill="url(#m)" d="M331.92 182.86s23-19.57 42.4-14.73h6.28s-3.81 37.11-2.54 46.33-27.46 18.89-29.62 18.38-10.29.51-11.31-11.44-5.21-38.54-5.21-38.54Z" transform="translate(-2.14 -61.87)"/><path fill="#68e1fd" d="m116.98 64.84-3.72 52h1.86l3-52s-.8-1.37-1.14 0ZM119.85 69.15l10.92 46.71 2.35-.66-11.89-44.73-1.38-1.32z"/><path fill="#68e1fd" d="m102.15 116.51 12.98.29 26.67-3.05 13.7 52.65-37.34 19.31-20.59-3.58 4.58-65.62z"/><path fill="url(#n)" d="m118.16 185.71-3.03-68.91-12.98-.29-4.58 65.62 20.59 3.58z"/><path fill="#68e1fd" d="m341.66 127.53 6.43 1.15 11.21 2.54 22.98-10.94-19.6-2.61-21.02 9.86z"/><path fill="url(#o)" d="m341.66 127.53 6.43 1.15 11.21 2.54 22.98-10.94-19.6-2.61-21.02 9.86z"/><path fill="#68e1fd" d="m382.28 120.28-22.98 10.94-17.64-3.69 2.23 49.29 15.41 5.31 23.94-12.94-.96-48.91z"/><path fill="url(#p)" d="M222.72 161.44c2.85 5.33 9 9.41 14.87 7.82 4.37-1.19 7.43-5.16 9.3-9.28a57.74 57.74 0 0 0 3.56-11.84c.85-3.89 1.6-7.91.86-11.82a16.26 16.26 0 0 0-16.93-12.68c-17.38 1.68-17.93 26.04-11.66 37.8Z" transform="translate(-2.14 -61.87)"/><path fill="#25233a" d="M229.09 49.72c7.06-1.5 15-.23 20.38 4.54s7.87 12.66 13.64 17.22c1.86 1.47 4.31 2.58 6.58 1.88a7.92 7.92 0 0 1-7 4.53 7.29 7.29 0 0 0 3.54 2 8.39 8.39 0 0 1-6.26 3.24 3.1 3.1 0 0 1 1.16 1.89c-2.43 1.25-5.34 1.13-8 .56a16.92 16.92 0 0 1-10.88-7.79c-5.7-10.07-15.68-17.44-23.64-4.82-2.48-1.65-5.12-3.55-5.53-6.49-1.16-8.72 8.69-15.21 16.01-16.76Z"/><path fill="#68e1fd" d="M346.31 62.11v66.57h1.78l-.89-66.78-.89.21zM349.39 61.7l18.14 59.29h1.68l-18.55-59.51-1.27.22z"/><path fill="url(#q)" d="M359.3 131.22v50.91l-9.91-6.81-1.3-46.64 11.21 2.54z"/><path fill="url(#r)" d="m343.89 176.82 5.5-1.5-1.3-46.64-6.43-1.15 2.23 49.29z"/><path fill="url(#s)" d="m382.28 120.28-22.98 10.94v50.91l9.91-5.35 13.07-56.5z"/><path fill="url(#t)" d="M206.7 202.15c.55-3.27-14.16-9.18-16.08-12.8a41.89 41.89 0 0 1 .94-7s15.54 6.79 16.39 10.73-1.25 9.07-1.25 9.07Z" transform="translate(-2.14 -61.87)"/><path fill="url(#u)" d="M275.14 338.76c-3.05-.37-6.89-.67-11.52-.77l-12-42.42s-3.92-30.87-3-34.16h.19l15.28 1.13h.2v.06l.27 1.08 17.06 67.68a5.94 5.94 0 0 1-6.48 7.4Z" transform="translate(-2.14 -61.87)"/></svg>